<mxfile host="app.diagrams.net" modified="2023-12-15T13:31:10.030Z" agent="Mozilla/5.0 (Macintosh; Intel Mac OS X 10_15_7) AppleWebKit/605.1.15 (KHTML, like Gecko) Version/17.1 Safari/605.1.15" etag="1x2l-4XLiaA2_qQyoyRp" version="22.1.9" type="device">
  <diagram name="Страница — 1" id="lgNDZ0wdkI5kgA9vRSe-">
    <mxGraphModel dx="1430" dy="838" grid="1" gridSize="11" guides="1" tooltips="1" connect="1" arrows="1" fold="1" page="1" pageScale="1" pageWidth="827" pageHeight="1169" math="0" shadow="0">
      <root>
        <mxCell id="0" />
        <mxCell id="1" parent="0" />
        <mxCell id="zqUw6-bXSBoU1eW45OgZ-3" style="edgeStyle=orthogonalEdgeStyle;rounded=0;orthogonalLoop=1;jettySize=auto;html=1;exitX=0.5;exitY=1;exitDx=0;exitDy=0;exitPerimeter=0;entryX=0.5;entryY=0;entryDx=0;entryDy=0;strokeWidth=1;endArrow=none;endFill=0;" parent="1" source="zqUw6-bXSBoU1eW45OgZ-1" target="zqUw6-bXSBoU1eW45OgZ-2" edge="1">
          <mxGeometry relative="1" as="geometry" />
        </mxCell>
        <mxCell id="zqUw6-bXSBoU1eW45OgZ-1" value="Начало" style="strokeWidth=1;html=1;shape=mxgraph.flowchart.terminator;whiteSpace=wrap;" parent="1" vertex="1">
          <mxGeometry x="308" y="77" width="154" height="55" as="geometry" />
        </mxCell>
        <mxCell id="zqUw6-bXSBoU1eW45OgZ-6" style="edgeStyle=orthogonalEdgeStyle;rounded=0;orthogonalLoop=1;jettySize=auto;html=1;exitX=0.5;exitY=1;exitDx=0;exitDy=0;entryX=0.5;entryY=0;entryDx=0;entryDy=0;strokeWidth=1;endArrow=none;endFill=0;" parent="1" source="zqUw6-bXSBoU1eW45OgZ-2" target="zqUw6-bXSBoU1eW45OgZ-5" edge="1">
          <mxGeometry relative="1" as="geometry" />
        </mxCell>
        <mxCell id="zqUw6-bXSBoU1eW45OgZ-2" value="Создать матрицу" style="rounded=0;whiteSpace=wrap;html=1;strokeWidth=1;" parent="1" vertex="1">
          <mxGeometry x="309" y="154" width="153" height="55" as="geometry" />
        </mxCell>
        <mxCell id="zqUw6-bXSBoU1eW45OgZ-8" style="edgeStyle=orthogonalEdgeStyle;rounded=0;orthogonalLoop=1;jettySize=auto;html=1;exitX=0.5;exitY=1;exitDx=0;exitDy=0;entryX=0.5;entryY=0;entryDx=0;entryDy=0;strokeWidth=1;endArrow=none;endFill=0;" parent="1" source="zqUw6-bXSBoU1eW45OgZ-5" target="zqUw6-bXSBoU1eW45OgZ-7" edge="1">
          <mxGeometry relative="1" as="geometry" />
        </mxCell>
        <mxCell id="zqUw6-bXSBoU1eW45OgZ-5" value="A&lt;br&gt;i &amp;lt; n;" style="shape=loopLimit;whiteSpace=wrap;html=1;strokeWidth=1;" parent="1" vertex="1">
          <mxGeometry x="309" y="231" width="153" height="55" as="geometry" />
        </mxCell>
        <mxCell id="zqUw6-bXSBoU1eW45OgZ-10" style="edgeStyle=orthogonalEdgeStyle;rounded=0;orthogonalLoop=1;jettySize=auto;html=1;exitX=0.5;exitY=1;exitDx=0;exitDy=0;entryX=0.5;entryY=0;entryDx=0;entryDy=0;strokeWidth=1;endArrow=none;endFill=0;" parent="1" source="zqUw6-bXSBoU1eW45OgZ-7" target="zqUw6-bXSBoU1eW45OgZ-9" edge="1">
          <mxGeometry relative="1" as="geometry" />
        </mxCell>
        <mxCell id="zqUw6-bXSBoU1eW45OgZ-7" value="Б&lt;br&gt;j &amp;lt; m" style="shape=loopLimit;whiteSpace=wrap;html=1;strokeWidth=1;" parent="1" vertex="1">
          <mxGeometry x="309" y="308" width="153" height="55" as="geometry" />
        </mxCell>
        <mxCell id="_6fbn_wkdPBWI21PQKY1-1" style="edgeStyle=orthogonalEdgeStyle;rounded=0;orthogonalLoop=1;jettySize=auto;html=1;exitX=0.5;exitY=1;exitDx=0;exitDy=0;entryX=0.5;entryY=0;entryDx=0;entryDy=0;strokeWidth=1;endArrow=none;endFill=0;" parent="1" source="zqUw6-bXSBoU1eW45OgZ-9" target="zqUw6-bXSBoU1eW45OgZ-11" edge="1">
          <mxGeometry relative="1" as="geometry" />
        </mxCell>
        <mxCell id="zqUw6-bXSBoU1eW45OgZ-9" value="В&lt;br&gt;k &amp;lt; p" style="shape=loopLimit;whiteSpace=wrap;html=1;strokeWidth=1;" parent="1" vertex="1">
          <mxGeometry x="309" y="385" width="153" height="55" as="geometry" />
        </mxCell>
        <mxCell id="zqUw6-bXSBoU1eW45OgZ-18" style="edgeStyle=orthogonalEdgeStyle;rounded=0;orthogonalLoop=1;jettySize=auto;html=1;exitX=0.5;exitY=1;exitDx=0;exitDy=0;entryX=0.5;entryY=1;entryDx=0;entryDy=0;strokeWidth=1;endArrow=none;endFill=0;" parent="1" source="zqUw6-bXSBoU1eW45OgZ-11" target="zqUw6-bXSBoU1eW45OgZ-14" edge="1">
          <mxGeometry relative="1" as="geometry" />
        </mxCell>
        <mxCell id="zqUw6-bXSBoU1eW45OgZ-11" value="matrixC[I][j] = matrixC[I][j] + matrixA[i][k] * matrixB[k][j]" style="rounded=0;whiteSpace=wrap;html=1;strokeWidth=1;" parent="1" vertex="1">
          <mxGeometry x="308" y="473" width="154" height="60" as="geometry" />
        </mxCell>
        <mxCell id="zqUw6-bXSBoU1eW45OgZ-19" style="edgeStyle=orthogonalEdgeStyle;rounded=0;orthogonalLoop=1;jettySize=auto;html=1;exitX=0.5;exitY=0;exitDx=0;exitDy=0;entryX=0.5;entryY=1;entryDx=0;entryDy=0;strokeWidth=1;endArrow=none;endFill=0;" parent="1" source="zqUw6-bXSBoU1eW45OgZ-14" target="zqUw6-bXSBoU1eW45OgZ-16" edge="1">
          <mxGeometry relative="1" as="geometry" />
        </mxCell>
        <mxCell id="zqUw6-bXSBoU1eW45OgZ-14" value="А" style="shape=loopLimit;whiteSpace=wrap;html=1;direction=west;strokeWidth=1;" parent="1" vertex="1">
          <mxGeometry x="307" y="553" width="155" height="52" as="geometry" />
        </mxCell>
        <mxCell id="zqUw6-bXSBoU1eW45OgZ-20" style="edgeStyle=orthogonalEdgeStyle;rounded=0;orthogonalLoop=1;jettySize=auto;html=1;exitX=0.5;exitY=0;exitDx=0;exitDy=0;entryX=0.5;entryY=1;entryDx=0;entryDy=0;strokeWidth=1;endArrow=none;endFill=0;" parent="1" source="zqUw6-bXSBoU1eW45OgZ-16" target="zqUw6-bXSBoU1eW45OgZ-17" edge="1">
          <mxGeometry relative="1" as="geometry" />
        </mxCell>
        <mxCell id="zqUw6-bXSBoU1eW45OgZ-16" value="Б" style="shape=loopLimit;whiteSpace=wrap;html=1;direction=west;strokeWidth=1;" parent="1" vertex="1">
          <mxGeometry x="307" y="627" width="155" height="55" as="geometry" />
        </mxCell>
        <mxCell id="zqUw6-bXSBoU1eW45OgZ-17" value="В" style="shape=loopLimit;whiteSpace=wrap;html=1;direction=west;strokeWidth=1;" parent="1" vertex="1">
          <mxGeometry x="307" y="704" width="155" height="55" as="geometry" />
        </mxCell>
        <mxCell id="zqUw6-bXSBoU1eW45OgZ-21" value="Конец" style="strokeWidth=1;html=1;shape=mxgraph.flowchart.terminator;whiteSpace=wrap;" parent="1" vertex="1">
          <mxGeometry x="307" y="781" width="155" height="55" as="geometry" />
        </mxCell>
        <mxCell id="zqUw6-bXSBoU1eW45OgZ-22" style="edgeStyle=orthogonalEdgeStyle;rounded=0;orthogonalLoop=1;jettySize=auto;html=1;exitX=0.5;exitY=0;exitDx=0;exitDy=0;entryX=0.5;entryY=0;entryDx=0;entryDy=0;entryPerimeter=0;strokeWidth=1;endArrow=none;endFill=0;" parent="1" source="zqUw6-bXSBoU1eW45OgZ-17" target="zqUw6-bXSBoU1eW45OgZ-21" edge="1">
          <mxGeometry relative="1" as="geometry" />
        </mxCell>
      </root>
    </mxGraphModel>
  </diagram>
</mxfile>
